# xmcd CD database file
#
# Track frame offsets:
#	150
#	25332
#	40273
#	62634
#	82138
#	103208
#	123598
#	140795
#	161759
#	179522
#	197130
#
# Disc length: 2839 seconds
#
# Revision: 0
# Processed by: cddbd v1.5.2PL0 Copyright (c) Steve Scherf et al.
# Submitted via: CDex 1.51
#
DISCID=a70b150b
DTITLE=Silje Nergaard - Nightwatch
DYEAR=2003
DGENRE=Jazz
TTITLE0=01-How am i supposed to see the stars
TTITLE1=02-Once i held a moon
TTITLE2=03-Dance me love
TTITLE3=04-You send me flowers
TTITLE4=05-I don't want to see you cry
TTITLE5=06-In a sentence
TTITLE6=07-Take a long long walk
TTITLE7=08-This is not America
TTITLE8=09-Be gone
TTITLE9=10-Borrowing moons
TTITLE10=11-Unbreakable heart
EXTD=YEAR: 2003
EXTT0=
EXTT1=
EXTT2=
EXTT3=
EXTT4=
EXTT5=
EXTT6=
EXTT7=
EXTT8=
EXTT9=
EXTT10=
PLAYORDER=
